<svg xmlns="http://www.w3.org/2000/svg" viewBox="0 0 506.39 184.2"><defs><style>.cls-1{font-size:70.87px;}.cls-1,.cls-8{fill:#073f68;font-family:ProductSans-Regular, Product Sans;}.cls-2{letter-spacing:-0.01em;}.cls-3{letter-spacing:0em;}.cls-4{letter-spacing:0.01em;}.cls-5{letter-spacing:-0.01em;}.cls-6{letter-spacing:0em;}.cls-7{letter-spacing:0em;}.cls-8{font-size:49.39px;}.cls-9{letter-spacing:-0.01em;}.cls-10{letter-spacing:0em;}.cls-11{font-size:27.51px;font-family:ProductSans-Bold, Product Sans;font-weight:700;}.cls-11,.cls-16{fill:#29a7de;}.cls-12{letter-spacing:-0.01em;}.cls-13{fill:#26335e;}.cls-14{fill:#efefef;}.cls-15{fill:#fff;}.cls-17{fill:#008bbc;}</style></defs><g id="Layer_2" data-name="Layer 2"><g id="Layer_1-2" data-name="Layer 1"><text class="cls-1" transform="translate(170.77 104.35)"><tspan class="cls-2">M</tspan><tspan class="cls-3" x="58.11" y="0">u</tspan><tspan class="cls-4" x="96.52" y="0">lt</tspan><tspan x="136.77" y="0">i</tspan><tspan class="cls-5" x="152.36" y="0">C</tspan><tspan class="cls-6" x="203.31" y="0">lou</tspan><tspan class="cls-7" x="294.8" y="0">d</tspan></text><text class="cls-8" transform="translate(172.32 151.23)"><tspan class="cls-9">M</tspan><tspan x="40.25" y="0">a</tspan><tspan class="cls-10" x="65.44" y="0">nag</tspan><tspan x="145.1" y="0">er</tspan></text><text class="cls-11" transform="translate(174.37 41.67)">U<tspan class="cls-12" x="18.41" y="0">S</tspan><tspan x="33.95" y="0">T</tspan></text><g id="Group_282" data-name="Group 282"><g id="Group_275" data-name="Group 275"><path id="Path_386" data-name="Path 386" class="cls-13" d="M164.42,129V55.19a18.26,18.26,0,0,0-9.14-15.83L91.35,2.45a18.26,18.26,0,0,0-18.28,0L9.14,39.36A18.29,18.29,0,0,0,0,55.19V129a18.29,18.29,0,0,0,9.14,15.83l63.93,36.91a18.26,18.26,0,0,0,18.28,0l63.93-36.91A18.27,18.27,0,0,0,164.42,129Z"/></g><g id="Group_281" data-name="Group 281"><g id="Group_278" data-name="Group 278"><path id="Path_387" data-name="Path 387" class="cls-14" d="M123.24,80.94a15.7,15.7,0,0,0-1.81.11c.06-.67.09-1.34.09-2A22.82,22.82,0,0,0,76.7,72.94a20.32,20.32,0,0,0-2.58-.17,19.62,19.62,0,1,0,0,39.23h49.12a15.53,15.53,0,1,0,.25-31.06Z"/><g id="Group_277" data-name="Group 277"><g id="Group_276" data-name="Group 276"><path id="Path_388" data-name="Path 388" class="cls-15" d="M138.78,96.47A15.53,15.53,0,0,1,123.25,112H96.64V56.3a20.15,20.15,0,0,1,2.06-.1A22.83,22.83,0,0,1,121.53,79h0c0,.68,0,1.36-.1,2a15.52,15.52,0,0,1,17.24,13.57,16.26,16.26,0,0,1,.11,1.85Z"/></g></g></g><g id="Group_280" data-name="Group 280"><path id="Path_389" data-name="Path 389" class="cls-16" d="M101.88,93.8a18,18,0,0,0-1.94.11c.06-.71.1-1.43.1-2.16a24.45,24.45,0,0,0-48-6.52,21,21,0,0,0-5.41,41.67,21.27,21.27,0,0,0,2.64.17h52.63a16.64,16.64,0,1,0,0-33.27Z"/><g id="Group_279" data-name="Group 279"><path id="Path_390" data-name="Path 390" class="cls-17" d="M118.52,110.44a16.46,16.46,0,0,1-16.29,16.63H74.33V67.4c.71-.07,1.43-.1,2.16-.1a24.2,24.2,0,0,1,23.94,24.45c0,.73,0,1.45-.1,2.16a16.25,16.25,0,0,1,18.08,14.18,16.74,16.74,0,0,1,.11,2.35Z"/></g></g></g></g></g></g></svg>